<svg width="17" height="16" viewBox="0 0 17 16" fill="none" xmlns="http://www.w3.org/2000/svg">
<path d="M4.27932 6.51037V6.35415C4.27932 4.8037 4.18603 3.07549 5.2689 1.96585C5.88644 1.33304 6.8857 0.800049 8.49999 0.800049C10.1143 0.800049 11.1135 1.33304 11.731 1.96585C12.8139 3.07549 12.7207 4.8037 12.7207 6.35415V6.51037M2.29299 7.75174C2.29299 7.20325 2.73762 6.75864 3.28609 6.75864H13.7136C14.2621 6.75864 14.7067 7.20325 14.7067 7.75174V13.2138C14.7067 14.3108 13.8175 15.2 12.7205 15.2H4.27919C3.18224 15.2 2.29299 14.3108 2.29299 13.2138V7.75174Z" stroke="#170F49" stroke-width="1.59999" stroke-linecap="round" stroke-linejoin="round"/>
</svg>
